# xmcd CD database file
#
# Track frame offsets:
#	150
#	9896
#	31444
#	45102
#	58568
#	74203
#	81456
#	95930
#	131109
#	148642
#
# Disc length: 2149 seconds
#
# Revision: 0
# Processed by: cddbd v1.5.1PL2 Copyright (c) Steve Scherf et al.
# Submitted via: CDex 1.51
#
DISCID=8e08630a
DTITLE=Willie Nelson - On the Road Again
DYEAR=2004
DGENRE=Country
TTITLE0=On the Road Again
TTITLE1=City of New Orleans
TTITLE2=Good Hearted Woman
TTITLE3=Blue Eyes Crying In The Rain`
TTITLE4=Always On My Mind
TTITLE5=If You've Got The Money, I've Got the Time 
TTITLE6=Whiskey River
TTITLE7=Funny How Time Slips Away
TTITLE8=Red Headed Stranger
TTITLE9=To All The Girls I've Loved Before
EXTD=YEAR: 2004
EXTT0=
EXTT1=
EXTT2=
EXTT3=
EXTT4=
EXTT5=
EXTT6=
EXTT7=
EXTT8=
EXTT9=
PLAYORDER=
